<?xml version="1.0" standalone="no"?>
<!DOCTYPE svg PUBLIC "-//W3C//DTD SVG 20010904//EN"
 "http://www.w3.org/TR/2001/REC-SVG-20010904/DTD/svg10.dtd">
<svg version="1.0" xmlns="http://www.w3.org/2000/svg"
 width="387.000000pt" height="387.000000pt" viewBox="0 0 387.000000 387.000000"
 preserveAspectRatio="xMidYMid meet">
<metadata>
Created by potrace 1.14, written by Peter Selinger 2001-2017
</metadata>
<g transform="translate(0.000000,387.000000) scale(0.100000,-0.100000)"
fill="#000000" stroke="none">
<path d="M1674 3602 c3 -5 -19 -33 -49 -63 -30 -30 -55 -59 -55 -66 0 -6 -10
-19 -22 -27 -12 -9 -23 -23 -24 -33 -2 -9 -10 -20 -19 -25 -8 -5 -13 -13 -10
-19 4 -5 0 -12 -9 -15 -8 -3 -12 -12 -9 -20 3 -8 1 -14 -5 -14 -6 0 -13 -13
-17 -30 -4 -16 -10 -30 -14 -30 -6 0 -34 -65 -36 -82 0 -4 -5 -12 -12 -19 -6
-6 -9 -18 -6 -25 3 -8 1 -14 -5 -14 -13 0 -28 -83 -38 -212 -3 -38 -9 -68 -13
-68 -8 0 -7 -21 5 -74 7 -27 5 -28 -22 -23 -16 3 -38 7 -49 9 -11 2 -23 7 -26
11 -3 4 -16 9 -27 10 -12 1 -22 5 -22 9 0 4 -9 5 -20 3 -11 -2 -20 0 -20 4 0
8 -48 19 -115 26 -16 2 -55 7 -85 10 -82 11 -130 7 -142 -10 -5 -6 -8 -5 -8 3
0 7 -5 10 -11 7 -5 -4 -38 -8 -72 -10 -34 -1 -70 -5 -79 -9 -10 -3 -26 -9 -35
-12 -10 -4 -27 -7 -38 -8 -11 -1 -26 -5 -32 -9 -7 -5 -13 -5 -13 -2 0 4 -7 -1
-16 -10 -9 -9 -22 -14 -30 -11 -7 3 -14 2 -16 -2 -2 -4 -24 -18 -49 -30 -36
-19 -45 -28 -42 -43 3 -10 9 -19 13 -19 5 0 7 -8 5 -17 -1 -10 1 -22 5 -28 12
-18 31 -95 25 -105 -3 -5 -1 -11 5 -15 5 -3 10 -23 10 -43 0 -32 -6 -41 -38
-62 -20 -13 -40 -23 -45 -22 -4 1 -7 -2 -7 -6 0 -4 -29 -27 -65 -50 -62 -41
-77 -63 -55 -77 6 -3 10 -15 10 -26 0 -10 5 -19 10 -19 6 0 10 -5 10 -10 0 -9
29 -63 73 -135 7 -11 20 -26 30 -33 9 -7 17 -18 17 -25 0 -19 175 -178 244
-222 17 -10 33 -22 36 -25 3 -3 12 -6 20 -8 8 -2 21 -9 28 -15 8 -6 19 -12 26
-13 6 -1 34 -12 61 -25 28 -13 54 -22 58 -21 5 1 22 -7 38 -18 17 -13 29 -17
29 -9 0 9 4 8 15 -1 21 -17 19 -22 -15 -61 -16 -19 -30 -37 -30 -40 0 -3 -19
-27 -43 -53 -23 -26 -56 -73 -72 -104 -17 -31 -34 -60 -38 -63 -4 -3 -7 -10
-5 -15 1 -5 -3 -18 -9 -29 -6 -11 -12 -24 -14 -30 -1 -5 -9 -26 -17 -45 -8
-19 -15 -39 -17 -45 -1 -5 -5 -17 -8 -25 -4 -8 -9 -31 -12 -50 -3 -19 -10 -66
-16 -105 -13 -83 -15 -206 -5 -256 l8 -36 56 1 c32 1 62 0 67 -3 15 -8 34 -11
88 -13 39 -2 53 -7 68 -28 10 -14 22 -29 27 -35 4 -5 6 -18 4 -28 -2 -10 0
-26 4 -35 4 -9 8 -24 10 -32 25 -122 24 -120 63 -121 53 -2 85 2 96 11 6 4 20
6 33 4 12 -2 22 0 22 5 0 4 14 8 32 9 17 0 34 5 37 9 3 5 17 9 31 8 14 0 50
12 80 27 30 16 61 28 68 28 6 0 12 3 12 8 0 4 15 13 33 21 17 8 46 25 63 38
17 12 34 20 37 16 4 -3 7 -1 7 5 0 7 5 12 11 12 6 0 32 21 59 46 27 25 51 44
54 42 3 -1 16 12 30 31 14 18 34 42 46 53 11 11 18 23 16 27 -3 4 6 15 20 25
13 11 24 24 24 31 0 6 9 20 20 30 11 10 20 24 20 32 0 7 4 13 10 13 5 0 12 11
16 25 9 37 36 31 59 -12 19 -36 54 -92 65 -103 3 -3 17 -21 31 -40 37 -48 142
-154 182 -181 17 -13 34 -26 37 -29 7 -7 58 -36 110 -62 25 -13 48 -27 51 -32
4 -5 12 -5 18 -2 6 4 11 3 11 -1 0 -5 24 -18 53 -28 64 -24 64 -24 105 -31 17
-4 32 -10 32 -14 0 -4 16 -7 36 -5 20 1 38 -3 40 -9 3 -7 31 -11 72 -11 l67 1
6 39 c4 22 9 49 12 60 19 74 28 112 29 123 1 6 5 12 9 12 4 0 9 10 13 23 5 21
11 23 63 22 32 0 65 5 75 10 9 6 43 10 77 8 33 -1 63 3 67 8 3 6 6 28 6 50 0
21 3 41 7 43 11 7 13 86 2 86 -4 0 -8 12 -8 28 1 23 -14 158 -18 172 -1 3 -4
12 -7 20 -3 8 -12 38 -19 65 -6 28 -17 59 -23 70 -6 11 -10 22 -11 25 -1 13
-80 165 -87 168 -4 2 -8 8 -8 14 0 12 -61 89 -112 142 -53 54 -51 82 5 77 9
-1 17 2 17 7 0 5 10 10 23 9 12 0 45 11 72 24 28 13 55 24 60 24 6 0 12 2 15
6 3 3 23 16 45 29 22 13 45 31 52 40 7 8 13 11 13 6 0 -6 14 3 30 19 17 16 30
26 30 22 0 -3 38 31 85 77 47 46 85 86 85 90 0 4 13 21 30 39 16 18 30 35 30
39 0 3 10 19 23 35 37 44 77 146 65 166 -5 9 -16 17 -23 17 -8 0 -15 5 -15 11
0 6 -6 9 -12 7 -7 -3 -18 0 -25 6 -7 6 -39 34 -72 61 -44 37 -60 57 -60 76 -1
14 2 29 6 32 3 4 7 17 8 30 5 47 23 119 34 130 6 6 11 25 11 43 0 32 -14 42
-62 49 -10 1 -24 8 -32 14 -8 7 -20 10 -25 7 -5 -4 -12 -2 -15 3 -6 9 -83 27
-98 23 -5 -1 -8 2 -8 7 0 11 -68 23 -140 26 -30 1 -74 7 -98 13 -23 5 -44 7
-46 3 -3 -4 -24 -8 -48 -10 -76 -6 -83 -6 -93 -12 -5 -3 -28 -7 -50 -8 -22 -2
-43 -8 -47 -14 -4 -7 -8 -8 -8 -2 0 5 -5 4 -12 -3 -7 -7 -24 -12 -39 -12 -15
0 -30 -4 -34 -9 -3 -6 -13 -10 -23 -9 -9 0 -31 -3 -47 -7 l-31 -7 1 79 c0 43
-4 84 -8 90 -5 7 -9 35 -10 63 0 27 -5 50 -10 50 -5 0 -7 6 -4 14 3 7 0 24 -7
38 -7 13 -11 29 -8 36 2 6 -2 12 -8 12 -7 0 -10 7 -6 15 3 8 -1 21 -9 29 -8 7
-11 16 -8 20 7 6 -45 117 -60 127 -5 3 -8 8 -7 10 4 10 -21 59 -30 59 -5 0
-10 7 -10 16 0 9 -11 25 -25 35 -14 12 -22 26 -18 34 3 8 0 15 -5 15 -13 0
-62 47 -62 59 0 12 -43 56 -62 64 -12 4 -19 0 -23 -14 -4 -10 -12 -19 -19 -19
-7 0 -23 -11 -36 -25 -13 -14 -26 -23 -28 -20 -3 3 -16 -5 -29 -17 -13 -12
-23 -17 -23 -13 0 5 -6 0 -14 -11 -28 -39 -124 -21 -183 35 -12 12 -27 21 -32
21 -6 0 -14 6 -18 13 -11 17 -63 57 -75 57 -5 0 -7 -4 -4 -8z"/>
</g>
</svg>
